<svg xmlns="https://www.w3.org/2000/svg" xmlns:xlink="https://www.w3.org/1999/xlink" id="top-logo" version="1.1" x="0px" y="0px" width="381px" height="174.642px" viewBox="0 0 381 174.642" xml:space="preserve">
  <text transform="matrix(0.9593 -0.1445 -0.0954 0.9954 95 149.5693)" class="logo-fill" font-family="'Futura-Medium'" font-size="28.6814">KLINIKKEN</text>
  <path class="logo-fill" d="M208.129,52.179c1.18-13.104-14.795-7.105-14.67-3.98c0.068,1.767,1.104,14.16-1.316,16.522  c-2.425,2.361-11.148,6.771-11.321,1.992c-0.168-4.776,0.654-12.608,0.764-14.269c0.27-4.123-7.359-0.437-10.457,2.184  c-3.098,2.613-3.418,10.441-3.418,10.441s-9.4,2.895-11.159-8.207c-1.758-11.104-14.95,2.432-18.478,5.818  c-3.523,3.389-11.864,12.365-11.864,12.365l-0.028-13.693c0,0-2.012-10.41-15.302-3.562c-6.487,3.343-9.794,5.047-11.494,5.923  c0.494-2.061,0.79-3.268,0.79-3.268s2.621-9.662,7.152-23.265c4.533-13.604,1.283-15.312,1.283-15.312  c-6.82-12.52-15.633-4.004-15.633-4.004S82.503,30.999,75.575,41.267C68.647,51.537,49.78,85.01,32.96,124.789  c-16.824,39.781,1.312,37.16,1.312,37.16l24.383-57.889L79.808,90.1c0,0-3.984,22.695-5.652,33.465  c-1.672,10.766,11.402,13.266,11.402,13.266s0,0,1.934-16.244c1.029-8.65,4.562-25.148,7.638-38.682  c0.022-0.018,23.476-15.726,20.304-8.782c-3.171,6.945-4.068,33.178,10.28,20.143c14.349-13.038,20.017-20.302,20.017-20.302  l1.545-1.421c0,0,2.188,16.782,11.6,12.352c9.412-4.436,10.453-7.204,10.453-7.204l0,0c0.432,0.881,0.398,0.729,0.766,1.479  c1.279,2.61,7.68,5.794,17.789,1.635c1.236-0.511,3.037-1.426,4.08-1.981c-2.333,5.288-6.08,22.721-43.6,24.375  c-9.793,0.432,16.512,14.791,38.52,0.846C208.523,89.328,206.95,65.281,208.129,52.179z M86.097,68.238l-14.729,8.724L94.852,38.77  L86.097,68.238z"></path>
  <path class="logo-fill" d="M235.709,40.574c-1.721,4.688,0.17,13.971-7.82,17.471c-3.533,1.549-2.475,0.185-1.055-11.221  c1.18-9.457-10.382-5.584-11.625-1.625c-1.243,3.957-13.959,33.276,6.17,30.154c16.5-2.562,27.491-19.992,27-31.062  C247.713,29.295,237.084,36.824,235.709,40.574z"></path>
  <path fill="#FFD008" d="M264.164,38.273c0.46,0.285,0.918,0.572,1.38,0.854c0.317,0.195,0.646,0.387,0.983,0.585  c0.867-2.155,0.068-5.874-1.477-7.28c-0.421-0.388-0.795-0.516-1.385-0.252c-1.835,0.816-3.689,1.59-5.575,2.281  c-0.339,0.124-0.846-0.205-1.272-0.325c0.006-0.133,0.011-0.266,0.017-0.396c0.513-0.221,1.015-0.479,1.542-0.655  c1.529-0.513,3.085-0.96,4.604-1.506c0.432-0.153,0.771-0.558,1.149-0.848c-0.05-0.091-0.101-0.183-0.151-0.272  c-0.979,0.186-1.961,0.368-2.938,0.553c1.032-0.928,2.206-1.454,3.587-1.463c0.289-0.002,0.646,0.065,0.854-0.072  c1.477-0.975,2.92-1.988,4.369-3c0.157-0.111,0.274-0.284,0.342-0.646c-0.672,0.105-1.354,0.162-2.01,0.328  c-0.854,0.217-1.687,0.532-2.533,0.785c-0.854,0.254-1.695,0.445-2.58-0.002c-0.231-0.119-0.627,0.065-0.942,0.121  c-0.802,0.137-1.599,0.328-2.397,0.382c-0.22,0.015-0.463-0.38-0.693-0.587c0.21-0.143,0.406-0.373,0.632-0.402  c0.696-0.096,1.405-0.105,2.108-0.17c0.203-0.018,0.408-0.08,0.602-0.152c0.557-0.207,1.087-0.378,1.203,0.613  c1.923-0.582,3.764-1.139,5.755-1.74c-0.211-0.322-0.371-0.557-0.519-0.797c-0.332-0.547-0.646-1.107-0.996-1.646  c-0.174-0.268-0.394-0.521-0.637-0.722c-0.521-0.42-1.141-0.737-1.592-1.219c-0.324-0.347-0.454-0.884-0.669-1.337  c0.14-0.094,0.272-0.186,0.411-0.278c1.48,1.642,2.965,3.28,4.562,5.049c0.188-0.45,0.442-0.858,0.521-1.302  c0.302-1.705,0.631-3.412,0.777-5.135c0.097-1.092-0.146-2.209-0.16-3.313c-0.006-0.285,0.29-0.574,0.445-0.86  c0.224,0.309,0.629,0.615,0.631,0.927c0.007,0.719-0.227,1.437-0.285,2.159c-0.151,1.82-0.2,3.652-0.414,5.465  c-0.098,0.82-0.512,1.605,0.22,2.626c0.341-1.487,0.64-2.809,0.938-4.13c0.021,0.018,0.041,0.035,0.062,0.053  c0.226-0.461,0.544-0.896,0.655-1.385c0.292-1.262,0.54-2.537,0.712-3.819c0.126-0.935,0.312-1.946,0.071-2.815  c-0.184-0.681-0.381-1.275-0.2-1.961c0.022-0.088,0.011-0.204,0.063-0.265c0.299-0.324,0.6-0.65,0.936-0.938  c0.048-0.042,0.413,0.14,0.415,0.22c0.002,0.404,0.053,0.88-0.136,1.203c-0.521,0.906-0.224,1.875-0.338,2.807  c-0.043,0.352,0.146,0.736,0.073,1.072c-0.342,1.578-0.764,3.141-1.104,4.717c-0.217,1-0.396,2.016-0.475,3.031  c-0.021,0.285,0.355,0.604,0.68,1.104c0.472-0.822,0.854-1.458,1.203-2.113c0.902-1.721,1.84-3.427,2.666-5.187  c0.351-0.741,0.457-1.603,0.666-2.408c0.424-1.638,0.842-3.272,1.238-4.821c-0.199-0.255-0.592-0.564-0.537-0.723  c0.129-0.385,0.467-0.694,0.719-1.034c0.223,0.436,0.688,0.913,0.621,1.298c-0.561,3.168-0.649,6.455-2.207,9.382  c-0.188,0.356-0.6,0.593-0.895,0.896c-0.163,0.166-0.396,0.337-0.436,0.536c-0.486,2.484-1.986,4.468-3.246,6.562  c-0.433,0.718-0.312,1.112,0.387,1.548c1.312,0.816,2.548,1.752,3.859,2.565c0.271,0.17,0.763,0.104,1.114,0.012  c0.669-0.181,1.31-0.46,2.007-0.716c0.149,0.207,0.308,0.42,0.483,0.665c1.437-1.143,2.868-2.255,4.271-3.407  c0.455-0.374,0.502-0.773-0.195-0.974c-0.256-0.074-0.503-0.175-0.827-0.286c0.151-0.303,0.267-0.524,0.367-0.727  c-1.466-1.174-2.921-2.343-4.441-3.562c0.591-0.475,1.138-0.438,1.604-0.012c0.65,0.59,1.217,1.273,1.865,1.866  c0.293,0.27,0.7,0.408,1.061,0.608c0.102-0.394,0.316-0.795,0.279-1.174c-0.127-1.327-0.321-2.65-0.543-3.967  c-0.045-0.274-0.412-0.505-0.438-0.771c-0.03-0.307,0.156-0.634,0.249-0.952c0.229,0.166,0.616,0.296,0.665,0.505  c0.349,1.445,0.614,2.91,0.92,4.365c0.127,0.603,0.284,1.194,0.431,1.792c0.104,0.005,0.209,0.009,0.313,0.014  c0.155-0.304,0.319-0.604,0.469-0.908c0.438-0.906,0.877-1.812,1.298-2.727c0.51-1.104,0.769-2.228,0.375-3.456  c-0.125-0.396,0.027-0.887,0.057-1.335c0.137-0.019,0.275-0.038,0.412-0.058c0.164,0.539,0.436,1.069,0.471,1.619  c0.08,1.252-0.032,2.484-0.667,3.636c-0.272,0.493-0.332,1.099-0.548,1.63c-0.317,0.785-0.715,1.539-1.021,2.329  c-0.152,0.392-0.178,0.835-0.261,1.254c0.144,0.058,0.285,0.115,0.426,0.172c0.253-0.37,0.585-0.71,0.743-1.116  c0.777-1.984,1.507-3.988,2.257-5.986c0.05-0.138,0.117-0.266,0.179-0.396c0.082-0.004,0.162-0.006,0.244-0.01  c0.043,0.477,0.139,0.954,0.114,1.426c-0.09,1.762-0.907,3.273-1.733,4.771c-1.065,1.929-1.084,1.919,0.775,3.113  c1.068,0.688,1.225,0.896,1.254,1.77c-0.648-0.344-1.265-0.67-2.004-1.062c-0.15,1.176,0.326,1.968,1.02,2.471  c1.677,1.217,3.574,1.906,5.92,1.954c-0.94-1.008-1.746-1.863-2.646-2.821c-0.394-0.045-0.915,0.898-1.593,0.023  c0.367-0.211,0.684-0.393,1.186-0.68c-0.432-0.312-0.773-0.521-1.065-0.789c-0.204-0.186-0.374-0.432-0.479-0.685  c-0.035-0.084,0.198-0.402,0.274-0.392c0.282,0.045,0.562,0.163,0.817,0.296c0.125,0.063,0.188,0.241,0.305,0.333  c0.265,0.205,0.683,0.608,0.794,0.539c0.321-0.201,0.625-0.562,0.759-0.924c0.175-0.478,0.139-1.025,0.271-1.521  c0.1-0.353,0.336-0.662,0.537-1.04c0.776,0.92,0.065,3.559-1.188,4.215c0.657,0.734,1.28,1.428,2.119,2.362  c0.274-1.085,0.47-1.894,0.69-2.692c0.363-1.314,0.728-2.633,1.143-3.933c0.107-0.335,0.417-0.607,0.632-0.908  c0.106,0.038,0.216,0.077,0.321,0.114c-0.12,0.723-0.209,1.451-0.373,2.166c-0.346,1.513-0.75,3.012-1.086,4.524  c-0.088,0.394-0.006,0.818-0.002,1.206c0.188,0.031,0.283,0.068,0.299,0.046c0.769-1.044,1.656-2.024,2.253-3.163  c0.559-1.062,0.778-2.302,1.198-3.442c0.086-0.229,0.396-0.376,0.604-0.562c0.196,0.861,0.364,1.662-0.188,2.531  c-0.659,1.035-1.047,2.244-1.686,3.297c-0.654,1.09-1.501,2.064-2.205,3.129c-0.21,0.314-0.42,0.842-0.297,1.127  c0.626,1.445,1.415,2.82,2.036,4.271c0.291,0.679,0.403,1.458,0.463,2.204c0.062,0.812,0.001,1.643-0.06,2.461  c-0.043,0.561,0.111,0.837,0.713,0.909c0.925,0.114,1.055,0.021,1.23-1.075c0.647-4.001,1.44-7.971,2.825-11.795  c0.317-0.885,0.558-1.797,1.653-1.653c0.193-0.788,0.352-1.456,0.521-2.122c0.168-0.654,0.127-1.195-0.617-1.49  c-1.473-0.58-2.932-1.188-4.396-1.788c-0.566-0.583-1.139-1.167-1.706-1.753c-0.062-0.062-0.101-0.18-0.174-0.205  c-1.935-0.693-3.062-2.446-4.675-3.57c-0.9-0.631-1.564-1.58-1.44-2.896c1.396,2.332,3.646,3.709,5.599,5.438  c2.047,1.818,4.549,2.588,6.75,3.986c0.055-0.052,0.107-0.104,0.166-0.154c-0.211-0.254-0.42-0.506-0.632-0.76  c-1.409-1.714-2.829-3.422-4.225-5.149c-0.29-0.361-0.701-0.849-0.052-1.23c0.598-0.352,0.932,0.155,1.133,0.583  c0.305,0.648,0.473,1.357,0.751,2.021c0.146,0.354,0.35,0.729,0.625,0.983c0.575,0.536,1.22,1,1.761,1.437  c0.464-0.152,0.812-0.269,1.321-0.433c-0.093-0.681-0.194-1.438-0.321-2.384c-0.27,0.494-0.439,0.824-0.656,1.229  c-0.674-1.1-0.396-2.654,0.562-3.437c1.069,1.329,0.839,3.07,1.46,4.629c0.416-1.932,0.811-3.761,1.222-5.673  c-0.334-0.052-0.562-0.104-0.791-0.121c-1.426-0.089-2.836-0.266-4.278-0.275c-2.394-0.021-4.508-1.188-6.615-2.229  c-0.803-0.396-1.592-0.821-2.344-1.323c1.453-0.104,2.599,0.607,3.773,1.286c0.604,0.349,1.305,0.56,1.98,0.745  c0.849,0.232,1.721,0.397,2.588,0.557c0.746,0.139,1.5,0.266,2.258,0.312c0.242,0.015,0.501-0.236,0.755-0.365  c-0.157-0.227-0.271-0.559-0.485-0.66c-0.677-0.313-1.396-0.539-2.093-0.805c-0.228-0.087-0.454-0.178-0.666-0.298  c-1.584-0.903-3.222-1.732-4.731-2.747c-1.428-0.957-2.728-2.107-4.066-3.189c-0.184-0.146-0.386-0.385-0.398-0.594  c-0.02-0.25,0.101-0.568,0.271-0.745c0.078-0.08,0.571,0.052,0.646,0.199c1.49,2.939,4.293,4.097,7.076,5.312  c1.166,0.508,2.278,1.139,3.549,1.654c-0.865-1.012-1.734-2.023-2.604-3.036c0.068-0.062,0.141-0.128,0.208-0.191  c2.088,0.553,2.935,2.649,4.601,3.919c0.375-2.066,0.271-4-0.272-5.987c0.987,0.397,0.987,0.397,1.608,4.986  c0.976-0.759,1.556-1.735,1.976-2.8c0.394-0.99,0.688-2.021,1.015-3.035c0.055-0.164,0.125-0.438,0.047-0.514  c-0.984-0.936,0.246-1.261,0.502-1.842c0.47,3.627-1.172,6.569-3.112,9.438c3.655-2.355,5.844-5.709,7.065-9.88  c0.023,0.294,0.141,0.61,0.062,0.878c-0.319,1.135-0.514,2.36-1.092,3.354c-0.99,1.702-2.233,3.258-3.381,4.869  c-0.244,0.343-0.522,0.659-0.789,0.987c0.031,0.086,0.062,0.171,0.097,0.256c1.081-0.172,2.172-0.299,3.243-0.523  c2.552-0.539,4.958-1.458,7.212-2.799c0.883-0.522,1.92-0.789,2.812-1.303c0.359-0.207,0.534-0.756,0.769-1.164  c0.129-0.229,0.175-0.684,0.304-0.701c0.291-0.039,0.716,0.039,0.889,0.24c0.147,0.172,0.146,0.682-0.004,0.867  c-1.007,1.223-2.242,2.137-3.794,2.577c-0.347,0.099-0.739,0.155-1.017,0.361c-2.965,2.21-6.354,3.153-9.973,3.463  c-1.518,0.132-1.521,0.155-1.879,1.599c-0.468,1.885-0.608,3.871-1.785,5.527c-0.08,0.114-0.015,0.334-0.019,0.747  c0.771-0.508,1.384-0.921,2.007-1.321c1.629-1.059,3.062-2.309,4.049-4.02c0.104-0.178,0.358-0.266,0.547-0.396  c0.119,0.184,0.291,0.352,0.354,0.552c0.191,0.635,0.35,1.282,0.559,2.073c0.229-0.229,0.461-0.369,0.565-0.578  c0.293-0.582,0.431-1.265,1.364-1.161c0.154,0.017,0.381-0.604,0.609-0.992c1.312,1.333,0.7,3.503,2.043,4.831  c0.367-0.234,0.648-0.521,0.979-0.603c1.196-0.298,1.168-1.196,0.837-2.519c-0.169-0.67,0.059-1.441,0.146-2.163  c0.013-0.093,0.31-0.226,0.444-0.199c0.132,0.024,0.312,0.229,0.321,0.364c0.027,0.423,0.009,0.854-0.034,1.276  c-0.08,0.781-0.289,1.554,0.306,2.271c0.139,0.166,0.039,0.584-0.039,0.861c-0.535,1.932-0.319,3.807,0.387,5.646  c0.312,0.817,0.798,0.972,1.447,0.361c0.547-0.511,1.024-1.122,1.414-1.761c0.422-0.697,1.006-0.865,1.895-0.909  c-0.417,2.108-2.482,2.538-3.487,4.009c2.558-0.853,5.11-1.706,7.748-2.588c-0.178-0.182-0.307-0.312-0.44-0.449  c0.877-0.867,1.643-0.977,2.42-0.201c-2.801,2.294-6.281,2.861-9.771,4.07c0.865,0.107,1.509,0.188,2.147,0.266  c2.4,0.295,4.804,0.433,7.191-0.069c1.268-0.267,1.35-0.472,1.418-1.78c0.062-1.175,0.27-2.342,0.377-3.515  c0.094-1.026,0.099-2.061,0.215-3.081c0.08-0.687,0.287-1.356,0.438-2.033c0.15,0.01,0.305,0.021,0.455,0.031  c0.05,0.476,0.184,0.96,0.136,1.426c-0.243,2.424-0.543,4.842-0.795,7.268c-0.097,0.928-0.116,1.861-0.172,2.795  c0.092,0.031,0.187,0.064,0.274,0.101c0.145-0.228,0.31-0.445,0.426-0.685c0.691-1.401,1.263-2.878,2.091-4.191  c0.688-1.092,1.649-2.021,2.558-2.961c0.176-0.184,0.688-0.213,0.95-0.096c0.224,0.098,0.468,0.557,0.404,0.771  c-0.063,0.231-0.458,0.397-0.738,0.533c-0.346,0.169-0.896,0.169-1.055,0.429c-1.181,1.938-2.292,3.918-3.402,5.897  c-0.312,0.553-0.541,1.149-0.81,1.728c0.062,0.066,0.119,0.132,0.183,0.197c1.021-0.871,2.022-1.766,3.065-2.609  c0.73-0.592,1.486-1.161,2.289-1.645c0.24-0.144,0.678,0.044,1.022,0.08c-0.142,0.285-0.211,0.655-0.437,0.841  c-1.42,1.183-2.231,2.769-3.17,4.505c2.916,0.177,5.674,0.344,8.457,0.513c0.146,0.788-0.274,1.251-1.265,1.269  c-1.694,0.028-1.694,0.026-3.036,1.104c-0.283,0.229-0.562,0.472-0.828,0.718c-0.062,0.057-0.08,0.155-0.11,0.222  c1.354,0.44,2.703,0.87,4.041,1.325c0.353,0.121,1.071,0.064,0.764,0.691c-0.168,0.34-0.891,0.714-1.217,0.611  c-0.824-0.26-1.586-0.75-2.34-1.203c-1.236-0.742-2.142-0.8-2.958-0.121c-0.7,0.578-0.657,1.025,0.132,1.453  c1.524,0.826,3.158,0.775,4.819,0.646c0.416-0.034,0.854,0.147,1.279,0.229c-0.369,0.307-0.74,0.613-1.109,0.92  c-0.043,0.037-0.092,0.068-0.229,0.17c0.31,0.029,0.539,0.018,0.748,0.078c0.272,0.08,0.748,0.222,0.746,0.335  c0,0.328-0.117,0.733-0.34,0.96c-0.171,0.175-0.613,0.244-0.858,0.154c-0.912-0.332-1.771-0.816-2.688-1.12  c-1.467-0.482-2.727,0.316-4.021,0.808c-0.113,0.043-0.15,0.285-0.224,0.438c0.207,0.088,0.416,0.256,0.622,0.252  c0.882-0.015,1.771-0.181,2.645-0.104c1.174,0.104,2.342,0.331,3.485,0.617c0.328,0.081,0.76,0.523,0.787,0.832  c0.03,0.351-1.201,0.592-1.589,0.287c-1.312-1.033-2.842-0.987-4.368-0.893c-0.336,0.021-0.656,0.295-0.983,0.452  c0.241,0.28,0.432,0.661,0.734,0.823c0.992,0.529,2.027,0.979,3.048,1.457c0.401,0.189,0.802,0.384,1.202,0.576  c-0.604,1.09-1.396,1.15-2.155,0.398c-0.478-0.477-1.136-0.764-1.834-0.957c0.388,0.273,0.772,0.55,1.179,0.836  c-0.679,0.608-1.213,0.558-1.94-0.088c-0.64-0.564-1.271-1.145-1.955-1.646c-0.226-0.165-0.604-0.116-0.915-0.165  c-0.016,0.288-0.062,0.582-0.032,0.865c0.191,1.645,1.032,3.023,1.896,4.369c0.525,0.817,1.209,1.534,1.947,2.453  c0.782-0.877,1.602-1.797,2.424-2.71c0.238-0.267,0.457-0.57,0.748-0.764c1.701-1.109,3.424-2.192,5.139-3.288  c0.023-0.017,0.048-0.056,0.07-0.056c0.349,0.004,0.694,0.014,1.043,0.022c-0.086,0.303-0.07,0.732-0.271,0.888  c-0.918,0.703-1.884,1.346-2.854,1.977c-2.147,1.397-4.338,2.744-5.813,4.932c-0.183,0.268-0.354,0.541-0.606,0.938  c1.621-0.182,2.668-1.153,3.873-1.801c1.524-0.82,3.062-1.632,4.649-2.317c0.851-0.364,1.813-0.442,2.858,0.128  c-0.813,0.709-1.385,1.438-2.565,1.264c-1.492-0.221-2.687,0.658-3.867,1.402c-1.288,0.812-2.504,1.723-4.071,1.992  c-0.399,0.068-0.726,0.57-1.082,0.874c0.013,0.087,0.022,0.176,0.035,0.264c0.909,0.122,1.815,0.291,2.729,0.36  c2.823,0.219,5.651,0.4,8.479,0.602c0.271,0.02,0.601-0.032,0.801,0.1c0.248,0.161,0.443,0.463,0.549,0.746  c0.025,0.074-0.358,0.433-0.562,0.438c-0.873,0.029-1.757,0.031-2.628-0.058c-0.844-0.086-1.68-0.294-2.519-0.447  c-1.141-0.208-2.25-0.183-3.258,0.455c-1.414-1.302-1.004-0.759-4.192-0.932c0.763,1.216,1.444,2.268,2.086,3.348  c0.758,1.276,1.504,2.562,2.188,3.874c0.176,0.332,0.115,0.788,0.188,1.384c-1.229-0.569-1.664-1.55-2.209-2.386  c-0.553-0.849-0.975-1.783-1.449-2.68c-0.104,0.018-0.203,0.036-0.306,0.054c-0.047,0.858-0.124,1.715-0.132,2.572  c-0.008,0.759,0.104,1.521,0.08,2.279c-0.01,0.317-0.189,0.655-0.372,0.934c-0.056,0.081-0.517,0.044-0.56-0.046  c-0.156-0.341-0.398-0.798-0.287-1.082c0.658-1.658-0.063-3.355,0.199-5.038c0.117-0.729-0.555-1.583-0.93-2.538  c-0.251,0.562-0.627,1.113-0.734,1.711c-0.238,1.314-0.356,2.651-0.496,3.982c-0.098,0.938-0.104,1.891-0.24,2.821  c-0.043,0.29-0.379,0.538-0.579,0.808c-0.272-0.354-0.729-0.677-0.78-1.06c-0.104-0.733-0.064-1.521,0.071-2.253  c0.255-1.342,0.575-2.678,0.966-3.985c0.314-1.06,0.781-2.071,1.152-3.114c0.053-0.138-0.006-0.38-0.104-0.494  c-0.385-0.443-2.365-0.336-2.729,0.132c-0.846,1.087-2.047,1.039-3.246,1.068c-0.432,0.011-0.879,0.122-1.28,0.282  c-1.017,0.404-2.013,0.861-3.015,1.305c-0.32,0.142-0.635,0.299-0.949,0.448c0.007,0.091,0.015,0.182,0.021,0.271  c0.354,0.052,0.719,0.175,1.065,0.146c1.36-0.12,2.694-0.342,4.067,0.13c0.705,0.241,1.541,0.138,2.314,0.115  c0.396-0.013,0.857-0.23,0.844,0.42c-0.012,0.562-0.268,1.059-0.936,0.983c-0.568-0.062-1.139-0.219-1.686-0.403  c-1.488-0.511-2.998-0.741-4.719-0.465c1.041,0.353,1.965,0.625,2.854,0.973c1.021,0.396,2.035,0.812,3.01,1.308  c0.334,0.17,0.542,0.599,0.775,0.932c0.013,0.018-0.303,0.376-0.431,0.354c-0.454-0.076-1.059-0.107-1.313-0.407  c-1.256-1.458-3.051-1.579-4.644-2.201c-0.081,0.073-0.165,0.146-0.252,0.222c0.271,0.579,0.449,1.227,0.826,1.725  c1.474,1.941,2.992,3.844,4.522,5.738c0.688,0.854,0.58,1.521-0.408,1.906c-0.174,0.064-0.478,0.086-0.584-0.017  c-0.979-0.923-2.256-0.366-3.351-0.692c-0.104-0.033-0.301,0.231-0.454,0.354c-0.306,0.245-0.636,0.701-0.91,0.673  c-0.274-0.027-0.5-0.547-0.746-0.852c0.026-0.095,0.058-0.188,0.084-0.279c-1.834,0.282-3.668,0.564-5.502,0.846  c-0.026,0.121-0.056,0.241-0.08,0.362c0.578,0.389,1.152,0.781,1.729,1.168c0.75,0.5,1.494,1.009,2.255,1.495  c0.325,0.207,0.682,0.37,1.023,0.546c0.593,0.298,1.214,0.551,1.77,0.906c0.185,0.117,0.348,0.587,0.256,0.732  c-0.121,0.197-0.525,0.367-0.761,0.316c-0.396-0.088-0.782-0.313-1.12-0.559c-0.822-0.604-1.572-1.314-2.435-1.856  c-1.306-0.823-2.677-1.542-4.256-2.439c0.065,1.295,0.1,2.331,0.18,3.364c0.035,0.452,0.203,0.896,0.241,1.347  c0.089,1.064,0.23,2.067,1.613,2.109c-0.01,0.972-0.256,1.522-1.297,1.141c-0.015,0.236-0.004,0.389-0.031,0.529  c-0.09,0.447,0.021,1.117-0.729,1c-0.603-0.094-1.515,0.088-1.311-1.111c0.146-0.853-0.514-1.325-1.155-1.698  c-0.133-0.078-0.545,0.062-0.636,0.22c-0.366,0.631-0.694,1.289-0.95,1.972c-0.086,0.232,0.037,0.582,0.151,0.842  c0.146,0.33,0.455,0.598,0.563,0.932c0.091,0.279,0.062,0.643-0.045,0.922c-0.056,0.146-0.481,0.322-0.569,0.256  c-0.218-0.162-0.356-0.443-0.478-0.703c-0.084-0.178-0.08-0.398-0.117-0.607c-1.056,0.287-1.646,1.607-1.31,2.812  c0.072,0.258,0.205,0.535,0.17,0.781c-0.092,0.605-0.676,0.723-1.161,0.211c-0.734-0.771-1.445-1.57-2.129-2.389  c-0.556-0.662-1.052-0.758-1.619-0.029c-0.147,0.191-0.401,0.301-0.688,0.504c-0.229-0.641-0.39-1.037-0.008-1.629  c0.522-0.811-0.324-1.102-0.923-1.576c-0.913,2.354-0.338,4.486,0.361,6.381c0.444,0.209,0.93,0.379,0.915,0.438  c-0.127,0.561-0.338,1.104-0.521,1.649c-0.318-0.163-0.826-0.261-0.918-0.511c-0.808-2.146-1.726-4.289-1.068-6.676  c0.104-0.367,0.154-0.748,0.229-1.123c-0.099-0.061-0.196-0.121-0.297-0.18c-0.464,0.576-1.035,1.1-1.369,1.744  c-0.717,1.37-1.422,2.771-1.92,4.23c-0.451,1.326-0.567,2.746,0.104,4.104c0.244,0.492,0.112,0.93-0.424,1.104  c-0.533,0.176-0.783-0.186-0.896-0.651c-0.392-1.673-0.074-3.259,0.559-4.819c0.246-0.604,0.313-1.283,0.574-1.879  c0.449-1.025,0.974-2.018,1.488-3.012c0.196-0.383,0.458-0.732,0.69-1.102c-0.095-0.078-0.188-0.156-0.283-0.236  c-0.502,0.529-1.062,1.016-1.496,1.598c-0.869,1.168-1.676,2.387-2.5,3.592c-0.102,0.145-0.18,0.317-0.221,0.49  c-0.291,1.184-0.638,2.359-0.822,3.561c-0.101,0.646,0.109,1.34,0.131,2.012c0.009,0.264-0.116,0.531-0.184,0.795  c-0.188-0.168-0.486-0.301-0.552-0.508c-0.521-1.676-0.303-3.312,0.351-4.912c0.192-0.473,0.39-0.949,0.51-1.443  c0.48-1.992,1.867-3.387,3.154-4.85c0.744-0.844,1.474-1.705,2.196-2.564c0.354-0.418,0.298-0.774-0.204-1.031  c-0.056-0.027-0.107-0.058-0.164-0.083c-2.902-1.296-2.884-0.8-3.271,1.675c-0.167,1.053-0.24,2.128-0.521,3.152  c-0.192,0.717-0.66,1.361-1.006,2.037c-0.103-0.031-0.199-0.062-0.301-0.095c-0.131-0.642-0.273-1.276-0.393-1.921  c-0.111-0.648-0.199-1.305-0.325-2.141c-1.776,1.381-1.104,3.504-1.905,5.043c-0.107,0.004-0.221,0-0.33,0.004  c0.046-0.371,0.094-0.742,0.139-1.11c-0.086-0.017-0.17-0.034-0.254-0.052c-0.219,0.562-0.441,1.121-0.651,1.686  c-0.171,0.457-0.312,0.924-0.485,1.379c-0.295,0.77-0.684,1.373-1.502,0.793c-0.938,1.795-1.793,3.574-2.775,5.275  c-0.807,1.396-1.811,2.678-2.633,4.062c-0.6,1.006-1.014,2.117-1.568,3.15c-0.562,1.041-1.146,2.076-1.809,3.059  c-0.816,1.209-1.736,2.348-2.58,3.541c-0.221,0.312-0.315,0.709-0.478,1.066c-0.233,0.523-0.421,1.081-0.724,1.562  c-1.641,2.613-3.364,5.172-4.944,7.82c-1.743,2.92-3.313,5.941-5.052,8.867c-0.994,1.668-2.199,3.211-3.27,4.842  c-1.732,2.648-3.422,5.328-5.146,7.98c-1.957,3.016-3.92,6.021-5.904,9.016c-0.535,0.805-1.148,1.562-1.762,2.314  c-0.42,0.521-0.875,0.529-1.404,0.07c-0.877-0.756-1.793-1.469-2.707-2.18c-0.438-0.341-0.566-0.703-0.216-1.162  c1.351-1.761,2.718-3.504,4.044-5.275c0.504-0.672,0.891-1.432,1.385-2.113c0.42-0.574,0.936-1.09,1.377-1.648  c0.711-0.902,1.396-1.824,2.1-2.732c0.391-0.504,0.808-0.98,1.188-1.489c0.414-0.552,0.812-1.112,1.197-1.683  c0.291-0.426,0.535-0.883,0.838-1.303c0.836-1.162,1.695-2.305,2.527-3.467c0.152-0.216,0.229-0.488,0.316-0.742  c0.354-0.986,0.568-2.047,1.074-2.945c1.62-2.891,3.314-5.742,5.043-8.569c1.332-2.183,2.801-4.276,4.119-6.464  c1.335-2.211,2.555-4.488,3.84-6.729c0.514-0.898,1.133-1.74,1.58-2.662c0.527-1.09,0.859-2.273,1.387-3.365  c0.737-1.518,1.465-3.016,2.608-4.35c1.021-1.191,1.528-2.814,2.29-4.232c0.234-0.434,0.566-0.814,0.842-1.205  c0.088-0.461,0.082-1,0.291-1.438c0.93-1.934,1.924-3.83,2.885-5.745c0.08-0.159,0.16-0.354,0.141-0.522  c-0.133-1.104-0.289-2.209-0.438-3.312c-1.854,0.249-5.005,3.139-5.281,4.881c0.328-0.098,0.646-0.188,1.025-0.301  c-0.217,0.901-0.896,1.403-1.578,1.273c-0.703-0.133-0.834-0.879-0.283-1.694c0.457-0.684,0.883-1.395,1.402-2.021  c0.514-0.618,1.131-1.146,1.797-1.81c-0.259,0.067-0.438,0.095-0.604,0.166c-0.303,0.135-0.604,0.436-0.896,0.422  c-1.528-0.08-2.492,1.142-3.791,1.584c-0.664,0.227-0.798,0.727-0.692,1.467c0.146,1.009,0.045,2.05,0.028,3.082  c-0.008,0.482-0.026,0.971-0.118,1.443c-0.043,0.223-0.229,0.494-0.427,0.588c-0.162,0.08-0.567-0.006-0.629-0.131  c-0.082-0.175,0.051-0.455,0.101-0.691c0.178-0.867,0.547-1.744,0.498-2.596c-0.07-1.233-0.418-2.455-0.703-3.667  c-0.082-0.35-0.354-0.653-0.539-0.979c-0.312,0.223-0.668,0.401-0.922,0.678c-0.316,0.347-0.552,0.771-0.865,1.227  c-0.534-0.674-0.219-1.15,0.183-1.58c0.379-0.404,0.806-0.766,1.416-1.339c-0.574,0.007-0.851,0.009-1.272,0.014  c0.51-1.146-0.14-1.923-1.021-2.704c-0.056,0.857-0.14,1.714-0.149,2.568c-0.022,1.4,0.049,2.802-0.021,4.199  c-0.033,0.685-0.305,1.357-0.447,2.041c-0.138,0.639-0.166,1.314-0.396,1.918c-0.254,0.66-0.646,1.278-1.062,1.857  c-0.103,0.146-0.509,0.078-0.774,0.107c0.031-0.326-0.06-0.822,0.117-0.951c0.815-0.592,1.151-1.406,1.239-2.336  c0.214-2.208,0.386-4.418,0.56-6.63c0.019-0.219-0.078-0.445-0.142-0.773c-0.254,1.061-0.429,2.01-0.731,2.918  c-0.101,0.305-0.531,0.494-0.812,0.736c-0.172-0.32-0.343-0.64-0.569-1.063c-0.715,0.757-1.539,1.651-2.397,2.518  c-0.197,0.198-0.515,0.278-0.777,0.415c0.069-0.289,0.054-0.65,0.224-0.856c1.063-1.289,2.205-2.521,3.25-3.825  c0.392-0.485,0.647-1.102,0.865-1.691c0.172-0.464,0.202-1.057-0.461-1.171c-0.564-0.103-1.186-0.048-1.406,0.684  c-0.246,0.815-0.453,1.646-0.744,2.444c-0.248,0.683-0.676,1.201-1.529,1.065c0.574-1.167,1.111-2.266,1.729-3.521  c-2.724-0.166-4.929,0.908-7.228,1.958c0.709,0.422,0.588,0.756-0.097,0.98c-0.729,0.239-1.461,0.361-2.442-0.221  c0.728-0.555,1.271-1.148,1.945-1.439c1.448-0.627,2.956-1.127,4.462-1.61c0.938-0.301,1.931-0.431,2.873-0.718  c0.554-0.168,0.72-0.608,0.438-1.164c-0.51-1.012-2.5-1.367-3.471-0.64c-0.464,0.35-0.977,0.637-1.666,1.077  c0.059-1.237-0.602-1.14-1.188-1.001c-1.09,0.261-2.166,0.594-3.246,0.891c-0.424,0.117-0.854,0.221-1.323,0.342  c0.099,0.174,0.25,0.438,0.507,0.886c-0.518-0.002-0.922,0.094-1.24-0.026c-0.354-0.138-0.631-0.474-0.938-0.723  c0.277-0.193,0.539-0.422,0.837-0.581c1.051-0.56,2.118-1.017,3.374-0.821c0.318,0.05,0.686-0.221,1.031-0.32  c1.01-0.299,2.024-0.578,3.031-0.889c0.229-0.072,0.6-0.225,0.608-0.36c0.021-0.253-0.108-0.675-0.298-0.761  c-1.426-0.652-2.827-1.438-4.475-1.303c-0.472,0.039-0.929,0.228-1.297,0.102c-0.479-0.213-0.947-0.455-1.438-0.632  c-0.471-0.167-0.621-0.413-0.258-0.788c0.205-0.213,0.484-0.373,0.76-0.496c1.141-0.506,2.281-1.002,3.438-1.476  c0.271-0.109,0.596-0.09,0.887-0.171c0.326-0.093,0.639-0.241,0.965-0.344c0.396-0.123,0.799-0.28,1.207-0.308  c0.479-0.031,0.968,0.06,1.451,0.097c0.012-0.168,0.021-0.338,0.027-0.508c-0.271-0.145-0.525-0.322-0.811-0.426  c-2.635-0.957-5.334-1.23-8.092-0.699c-0.454,0.089-0.854,0.448-1.312,0.582c-0.256,0.075-0.571-0.054-0.86-0.091  c0.129-0.262,0.19-0.643,0.401-0.761c1.354-0.768,2.853-0.794,4.354-0.678c1.511,0.118,3.019,0.256,4.557,0.387  c0.003-0.193,0.041-0.312-0.001-0.359c-1.832-2.057-3.789-3.955-6.299-5.201c-0.896-0.444-1.675-0.43-2.451,0.225  c-1.306,1.1-2.601,2.213-3.955,3.246c-0.866,0.66-1.817,1.219-2.771,1.758c-0.226,0.126-0.599-0.005-0.9-0.019  c0.087-0.323,0.13-0.671,0.277-0.964c0.082-0.162,0.326-0.258,0.519-0.349c3.199-1.505,5.84-3.67,7.797-6.634  c0.097-0.142,0.121-0.33,0.035-0.627c-0.541,0.522-1.065,1.062-1.629,1.561c-0.66,0.585-1.308,1.205-2.047,1.67  c-0.438,0.274-1.06,0.261-1.579,0.424c-0.307,0.096-0.583,0.287-0.872,0.435c-0.67,0.339-1.31,0.812-2.019,0.97  c-0.414,0.092-0.94-0.326-1.418-0.518c0.276-0.312,0.547-0.637,0.84-0.934c0.095-0.102,0.256-0.134,0.531-0.271  c-0.097,0.361-0.152,0.584-0.242,0.92c0.771-0.246,1.558-0.346,2.168-0.725c1.731-1.074,3.406-2.251,5.08-3.42  c0.229-0.16,0.319-0.51,0.478-0.771c-0.278-0.056-0.578-0.206-0.832-0.149c-0.892,0.195-1.767,0.472-2.646,0.705  c-0.604,0.156-1.162,0.494-1.838,0.083c-0.199-0.12-0.656,0.198-1.004,0.296c-0.49,0.136-0.982,0.305-1.482,0.342  c-0.198,0.014-0.534-0.259-0.594-0.463c-0.047-0.167,0.178-0.483,0.361-0.631c0.721-0.57,1.221-0.514,1.614-0.02  c1.56-0.314,3.019-0.611,4.478-0.909c-1.086-0.576-2.422-0.545-3.129-1.894c1.918,0.483,3.713,0.938,5.735,1.449  c-0.129-0.498-0.173-0.775-0.271-1.033c-0.976-2.545-2.902-4.418-4.64-6.406c-0.388-0.441-1.125-0.898-1.968-0.59  c-0.2,0.074-0.741-0.229-0.809-0.454c-0.119-0.386,0.017-0.847,0.043-1.273c0.324,0.077,0.717,0.063,0.959,0.248  c2.472,1.854,4.834,3.823,6.367,6.884c1.373-2.065,2.653-3.992,4.021-6.047c-0.472-0.088-0.976-0.184-1.669-0.312  c0.484,1.04-0.153,1.004-0.71,1.113c-0.613,0.122-1.212,0.332-1.82,0.482c-0.194,0.051-0.465,0.131-0.603,0.042  c-0.723-0.459-1.409-0.967-2.051-1.573c2.062,0.48,3.771-0.638,5.881-0.959c-2.031-0.979-4.224-0.678-5.849-1.946  c0.003-0.093,0.003-0.187,0.005-0.278c0.353-0.06,0.725-0.228,1.051-0.162c1.069,0.212,2.131,0.488,3.186,0.776  c0.9,0.247,1.79,0.544,2.688,0.819c0.076-0.065,0.151-0.131,0.229-0.197c-0.113-0.291-0.156-0.652-0.357-0.856  c-0.34-0.339-0.756-0.624-1.184-0.849c-0.869-0.455-1.451-1.094-1.561-2.102L264.164,38.273z M267.948,28.875  c1.126-0.42,2.382-0.631,3.146-2.036c-1.414,0.38-2.229,1.288-3.146,2.038c-0.794,0.342-1.585,0.686-2.38,1.025  c0.053,0.104,0.104,0.209,0.154,0.312C266.51,29.849,267.455,29.786,267.948,28.875z M339.623,42.748  c0.09-0.188,0.169-0.387,0.273-0.568c0.561-1.008,0.565-1.018-0.455-1.438c-0.192-0.08-0.566-0.124-0.633-0.029  c-0.127,0.188-0.203,0.539-0.106,0.72c0.253,0.47,0.608,0.883,0.924,1.317c0.521,1.062,1.765,1.129,3.038,0.124  c-0.238-0.147-0.502-0.248-0.671-0.435c-0.562-0.623-0.953-0.574-1.396,0.152C340.488,42.775,339.96,42.703,339.623,42.748z  M321.501,48.381c-0.647,0.938-1.677,1.367-2.685,1.35c-2.073-0.041-3.922,0.77-5.862,1.229c-1.015,0.24-2.021,0.504-3.032,0.758  c0.008,0.055,0.016,0.105,0.023,0.156c4.23,0.489,8.468,0.979,12.754,1.471c0.07-1.533-0.721-3.146,0.181-4.431  c-0.506-0.195-0.942-0.364-1.381-0.532c0.332-0.185,0.683-0.546,0.994-0.516c0.673,0.063,0.924-0.287,1.157-0.779  c0.183-0.385,0.379-0.764,0.584-1.139c1.09-1.984,2.228-3.944,4.19-5.207c0.632-0.404,1.373-0.628,2.177-0.981  c-0.021,0.328,0,0.409-0.029,0.438c-0.223,0.205-0.45,0.406-0.688,0.596c-1.825,1.482-3.602,3.011-4.681,5.171  c-0.445,0.892-0.248,1.215,0.759,1.196c0.242-0.005,0.493-0.014,0.729-0.072c1.593-0.4,3.181-0.832,4.774-1.221  c0.499-0.121,1.146-0.37,1.511-0.17c0.793,0.438,1.252-0.008,1.81-0.35c0.206-0.129,0.419-0.309,0.644-0.328  c0.646-0.063,1.229-0.221,1.418-0.91c0.157-0.574,0.332-1.184,0.299-1.762c-0.058-0.969-0.262-1.93-0.431-2.889  c-0.237-1.357-0.501-2.715-0.771-4.17c-1.102,0.376-2.213,0.691-3.273,1.131c-3.328,1.377-6.641,2.793-9.949,4.223  c-0.271,0.115-0.646,0.438-0.647,0.667c-0.015,1.265-0.912,1.85-1.812,2.306c-2.168,1.098-4.396,2.07-6.598,3.108  c-1.43,0.674-2.848,1.373-4.268,2.062c0.039,0.104,0.082,0.206,0.123,0.309c0.317-0.051,0.64-0.105,0.957-0.154  c1.504-0.229,3.002-0.508,4.518-0.652c0.479-0.045,0.986,0.268,1.479,0.429c0.354,0.116,0.734,0.415,1.051,0.354  c1.016-0.197,1.994-0.555,3.002-0.788C320.828,48.205,321.175,48.34,321.501,48.381z M278.611,40.004  c0.074-0.089,0.146-0.179,0.222-0.27c-0.752-0.988-1.413-2.067-2.278-2.943c-1.062-1.076-2.312-1.967-3.443-2.977  c-0.178-0.157-0.172-0.521-0.252-0.79c0.283-0.016,0.615-0.13,0.834-0.021c0.371,0.188,0.664,0.527,1.002,0.789  c0.621,0.48,1.3,0.902,1.863,1.439c0.569,0.537,0.967,1.266,1.562,1.768c1.259,1.069,2.054,2.328,2.193,4.008  c0.027,0.309,0.363,0.686,0.658,0.857c1.402,0.828,2.791,1.707,4.282,2.344c0.951,0.406,2.068,0.424,3.113,0.604  c0.067,0.013,0.161-0.069,0.233-0.121c1.222-0.855,1.582-0.858,2.799-0.064c1.096,0.713,2.178,1.449,3.312,2.093  c0.29,0.163,0.761,0.015,1.146,0.009c-0.174-0.342-0.26-0.791-0.532-1.007c-1.574-1.247-3.308-2.321-4.767-3.688  c-1.361-1.272-2.496-2.808-3.641-4.298c-0.271-0.354,0.004-1.148-0.277-1.459c-0.613-0.672-1.396-1.207-2.168-1.711  c-0.525-0.346-1.184-0.493-1.725-0.821c-1.114-0.675-2.17-1.448-3.288-2.116c-1.997-1.19-4.071-2.267-6.019-3.538  c-0.799-0.521-1.36-0.625-2.106-0.062c-1.51,1.134-3.008,2.302-4.946,2.638c-0.139,0.023-0.259,0.145-0.435,0.246  c0.632,1.52,1.25,3.006,1.897,4.566c0.273-0.95,0.521-1.785,0.756-2.623c0.222-0.795,0.429-1.594,0.642-2.391  c0.123,0.021,0.248,0.039,0.371,0.061c0.022,0.501,0.146,1.02,0.052,1.496c-0.249,1.264-0.59,2.512-0.898,3.764  c-0.027,0.111-0.101,0.252-0.19,0.299c-0.563,0.293-0.438,0.778-0.435,1.271c0.009,0.574-0.137,1.147-0.131,1.724  c0.014,1.017,0.013,2.039,0.16,3.036c0.111,0.753,0.451,1.469,0.652,2.089c0.43,0.237,0.863,0.479,1.434,0.795  c1.188-0.419,2.512,0.078,3.842,0.36c0.649,0.139,1.168,0.084,1.656-0.431c0.625-0.659,1.321-1.251,1.811-1.706  c-0.562,0.027-1.348,0.095-2.131,0.09c-0.221-0.002-0.438-0.211-0.659-0.325c0.146-0.216,0.247-0.556,0.44-0.622  c0.448-0.153,0.941-0.186,1.422-0.246c0.689-0.085,1.388-0.147,2.078-0.224c0.021-0.118,0.043-0.235,0.063-0.354  c-1.856-1.234-3.144-3.232-5.453-3.871c-0.34-0.094-0.651-0.328-0.944-0.539c-0.352-0.252-0.787-0.601-0.32-1.008  c0.214-0.184,0.826-0.176,1.08,0c1.4,0.969,2.742,2.023,4.117,3.031C277.693,39.469,278.162,39.722,278.611,40.004z M310.085,72.213  c-0.106-0.025-0.213-0.057-0.321-0.084c-0.307-1.195,0.115-2.259,0.723-3.297c0.51-0.865,1.058-1.718,1.447-2.635  c0.153-0.367,0.092-1.013-0.145-1.323c-1.034-1.354-2.154-2.645-3.273-3.931c-0.195-0.227-0.537-0.449-0.812-0.452  c-0.916-0.012-1.388-0.54-1.708-1.282c-0.229-0.535-0.432-1.084-0.643-1.627c-0.148,0.387-0.139,0.717-0.099,1.045  c0.378,3.084,0.769,6.166,1.138,9.252c0.127,1.043,0.467,2.148,0.254,3.125c-0.461,2.123,0.498,3.945,0.926,5.866  c0.181,0.799,0.824,0.804,1.52,0.232c0.764-0.629,1.643-0.881,2.633-0.863c0.467,0.007,0.971-0.068,1.396-0.248  c1.252-0.522,2.513-0.907,3.896-0.816c0.28,0.021,0.604-0.192,0.865-0.364c1.271-0.837,2.516-1.724,3.801-2.535  c0.372-0.236,0.853-0.337,1.295-0.425c1.598-0.317,2.022-0.79,1.783-2.427c-0.26-1.794,0.26-3.445,0.775-5.088  c0.225-0.712,0.445-1.234-0.312-1.707c-0.554-0.344-1.078-0.732-1.699-1.16c-0.276,1.207-0.875,1.393-1.932,0.989  c-0.672-0.255-1.4-0.358-2.105-0.532c-0.032,0.104-0.069,0.209-0.104,0.312c1.099,1.174,3.06,0.742,4.202,2.033  c-0.922,0.636-1.693,1.043-2.74,0.395c-1.344-0.833-2.844-0.797-4.336-0.406c-0.199,0.055-0.377,0.21-0.714,0.406  c0.405,0.25,0.647,0.416,0.908,0.559c1.2,0.658,2.425,1.278,3.604,1.977c0.688,0.407,1.268,0.957,1.303,2.003  c-2.572-1.134-4.393-3.29-7.231-4.114c0.173,0.522,0.206,0.842,0.365,1.068c0.897,1.295,1.815,2.576,2.748,3.849  c0.626,0.86,1.315,1.679,1.905,2.562c0.11,0.168-0.104,0.559-0.168,0.848c-0.275-0.09-0.666-0.094-0.809-0.283  c-0.875-1.166-1.684-2.383-2.542-3.559c-0.19-0.262-0.519-0.43-0.776-0.641c-0.068,0.043-0.142,0.084-0.209,0.125  c0.108,0.609,0.295,1.221,0.301,1.832c0.002,0.342-0.25,0.721-0.479,1.008c-0.065,0.082-0.604-0.033-0.673-0.182  c-0.146-0.303-0.246-0.727-0.148-1.027c0.342-1.049,0.426-2.059-0.186-3.306c-0.068,0.574-0.141,0.923-0.141,1.271  c-0.002,0.39,0.231,1.008,0.064,1.135c-0.877,0.67-0.361,1.505-0.412,2.271c-0.035,0.596-0.06,1.217-0.917,1.54  c-0.325-2.297,1.2-4.435,0.304-6.938C311.697,68.658,310.891,70.435,310.085,72.213z M291.947,52.755  c-0.041-0.083-0.084-0.168-0.123-0.252c-0.293,0.044-0.585,0.108-0.879,0.132c-2.346,0.178-4.694,0.489-7.038,0.455  c-1.171-0.016-2.274,0.041-3.414,0.271c-0.655,0.131-1.431,0.14-2.043-0.086c-1.07-0.395-2.122-0.437-3.229-0.543  c-1.545-0.152-2.892,0.334-4.324,0.511c-1.625,0.2-3.252,0.415-4.877,0.646c-0.213,0.027-0.412,0.178-0.617,0.271  c0.107,0.203,0.179,0.449,0.334,0.601c0.645,0.616,1.312,1.202,2.076,1.896c-1.012,0.52-1.396-0.153-1.816-0.592  c-1.034-1.08-1.462-1.018-2.104,0.303c-0.287,0.59-0.127,0.812,0.461,0.953c0.562,0.135,1.185,0.24,1.627,0.562  c1.449,1.055,2.852,2.178,4.229,3.32c0.774,0.646,1.478,1.383,2.209,2.077c0.099-0.087,0.19-0.173,0.287-0.259  c-1.646-1.873-3.291-3.744-5.067-5.77c1.197-0.084,1.668,0.604,2.156,1.235c0.239,0.31,0.369,0.739,0.663,0.966  c1.491,1.146,2.748,2.49,3.738,4.092c0.351,0.565,0.835,0.743,1.481,0.393c0.475-0.255,0.984-0.541,1.504-0.601  c1.644-0.184,2.842-1.204,4.076-2.102c1.316-0.956,1.508-1.771,0.977-3.228c-0.604,0.391-1.24,0.688-1.731,1.142  c-0.719,0.663-1.521,1.104-2.464,1.285c-0.208,0.039-0.624-0.035-0.631-0.094c-0.031-0.274-0.059-0.678,0.104-0.821  c0.354-0.316,0.801-0.549,1.244-0.732c0.817-0.34,1.669-0.59,2.482-0.932c0.468-0.197,0.891-0.499,1.335-0.754  c-0.039-0.086-0.078-0.172-0.116-0.26c-2.459-0.377-4.751,0.716-7.146,0.965c1.945-1.556,4.342-1.592,6.631-2.104  c-1.424-0.312-2.836-0.556-4.252-0.576c-0.791-0.011-1.601,0.315-2.377,0.564c-0.184,0.06-0.271,0.417-0.402,0.636  c-0.109,0.18-0.273,0.521-0.33,0.506c-0.395-0.111-0.764-0.302-1.139-0.466c0.092-0.202,0.127-0.517,0.279-0.589  c1.064-0.498,2.133-1.271,3.236-1.332c1.697-0.096,3.436,0.246,5.139,0.513c1.7,0.271,3.369,0.527,5.038-0.141  c1.275-0.511,2.571-0.972,3.847-1.482C291.324,53.197,291.625,52.952,291.947,52.755z M332.74,46.72  c0.015-0.041-0.081,0.099-0.081,0.238c0.002,0.922-0.533,1.194-1.354,1.199c-0.912,0.006-1.824,0.057-2.736,0.086  c-0.907,0.029-1.815,0.057-2.727,0.084c-0.01,0.081-0.02,0.162-0.027,0.244c0.369,0.195,0.746,0.381,1.106,0.591  c1.024,0.594,2.077,1.148,3.052,1.815c0.569,0.391,0.391,0.995-0.271,1.217c-0.517,0.174-0.761-0.066-0.984-0.521  c-0.416-0.846-1.271-1.279-2.049-1.137c1.183,1.545,1.671,3.035,1.119,3.765c-0.95-1.596-1.879-3.15-2.81-4.706  c-0.131,0.021-0.265,0.049-0.396,0.072c-0.188,0.489-0.4,0.971-0.555,1.471c-0.215,0.717-0.398,1.439-0.56,2.172  c-0.044,0.205-0.01,0.475,0.095,0.654c0.32,0.568,0.694,1.109,1.055,1.668c1.058,0.184,2.186,0.471,3.326,0.548  c1.623,0.107,3.308,1.028,4.867-0.251c0.297-0.244,0.631-0.463,0.979-0.626c0.535-0.257,1.085-0.497,1.652-0.646  c0.158-0.041,0.469,0.239,0.584,0.443c0.05,0.08-0.19,0.432-0.373,0.521c-0.588,0.292-1.211,0.509-1.809,0.776  c-0.146,0.063-0.344,0.203-0.355,0.321c-0.016,0.118,0.15,0.317,0.285,0.378c0.246,0.107,0.525,0.143,0.798,0.205  c1.508,0.354,3.053,0.604,4.514,1.104c0.833,0.286,1.338,0.017,1.853-0.452c0.638-0.58,0.813-1.636,0.4-2.094  c-2.312-2.564-3.596-5.623-4.312-8.953c-0.231-1.092-0.336-1.147-1.469-0.85C334.698,46.287,333.823,46.469,332.74,46.72z  M281.102,31.478c0.008,0.012,0.072,0.142,0.146,0.27c0.432,0.777,1.253,0.883,1.959,1.244c2.08,1.064,4.141,2.196,6.076,3.496  c1.857,1.248,3.634,2.651,5.296,4.152c1.259,1.135,2.276,2.533,3.421,3.801c0.146,0.164,0.396,0.23,0.602,0.346  c0.107-0.229,0.258-0.453,0.313-0.695c0.039-0.162-0.017-0.369-0.087-0.531c-0.62-1.391-0.508-2.872-0.328-4.285  c0.229-1.823-0.168-3.408-1.062-4.956c-0.377-0.655-0.812-1.026-1.605-1.111c-0.771-0.083-1.53-0.364-2.271-0.62  c-0.685-0.232-1.332-0.561-2.002-0.83c-1.469-0.587-2.593-2.511-2.479-4.102c0.021-0.268-0.296-0.713-0.562-0.823  c-1.045-0.434-1.902,0.114-2.674,0.73C284.264,28.828,282.718,30.138,281.102,31.478z M279.354,63.658  c-1.131,0.402-2.277,0.773-3.394,1.229c-0.478,0.193-0.731,0.58-0.457,1.188c0.3,0.662,0.501,1.371,0.729,2.065  c0.399,1.214,0.721,2.46,1.207,3.639c0.504,1.22,1.733,1.542,2.858,1.66c0.933,0.097,1.276-0.847,1.691-1.573  c0.517-0.914,0.719-2.13,2.062-2.36c0.18-0.028,0.348-0.337,0.45-0.547c1.286-2.599,2.562-5.201,3.896-7.933  c-0.228,0.131-0.336,0.177-0.422,0.25c-0.631,0.535-1.238,0.968-1.891-0.006c-0.086-0.13-0.537-0.193-0.648-0.098  c-0.379,0.334-0.768,0.708-0.996,1.148c-0.457,0.879-0.69,1.89-1.237,2.693c-0.49,0.717-1.161,0.502-1.58-0.432  c1.56-0.173,1.729-1.342,1.851-2.562c-1.363-0.007-1.192-0.202-1.765,0.831c-0.188,0.342-0.472,0.639-0.729,0.938  C280.211,64.706,279.962,64.685,279.354,63.658z M332.309,35.378c-1.912-0.821-3.549-1.595-5.233-2.228  c-0.927-0.346-1.929-0.521-2.91-0.656c-0.683-0.096-1.282,0.076-1.597,0.887c-0.135,0.349-0.646,0.607-1.039,0.781  c-0.654,0.285-1.223,0.613-1.551,1.575c0.705-0.171,1.235-0.318,1.774-0.426c0.62-0.124,1.25-0.287,1.874-0.276  c0.221,0.004,0.48,0.448,0.616,0.74c0.036,0.082-0.284,0.467-0.474,0.496c-1.475,0.223-2.963,0.584-4.433,0.521  c-1.497-0.064-2.174,0.851-2.955,1.75c-0.377,0.437-0.678,0.938-1.008,1.41c-0.753,1.081-1.503,2.166-2.255,3.249  c0.044,0.062,0.088,0.129,0.131,0.193c0.561-0.27,1.121-0.525,1.674-0.806c0.945-0.472,1.854-1.043,2.83-1.419  c2.307-0.879,4.668-1.602,6.957-2.514C327.247,37.648,329.727,36.5,332.309,35.378z M304.602,45.15  c2.045-2.549,3.973-4.862,5.791-7.255c0.938-1.229,1.941-2.528,2.006-4.142c0.069-1.781-0.06-3.58-0.203-5.361  c-0.15-1.873-0.202-1.867-2.021-1.904c-0.091-0.001-0.187,0-0.271-0.021c-0.594-0.118-0.92,0.133-1.053,0.712  c-0.285,1.245-0.697,2.477-0.854,3.736c-0.531,4.245-1.668,8.32-3.146,12.319C304.645,43.789,304.688,44.434,304.602,45.15z  M284.518,70.038c0.178,0.029,0.242,0.062,0.295,0.046c2.537-0.665,5.045-0.758,7.521,0.302c0.213,0.094,0.7-0.007,0.8-0.172  c0.556-0.92,1.24-1.839,1.48-2.854c0.487-2.052,0.931-4.101,2.03-5.927c0.144-0.234,0.393-0.455,0.643-0.565  c0.727-0.317,0.804-0.853,0.654-1.67c-0.653,0.562-1.476,0.931-1.729,1.536c-1.056,2.508-2.569,4.69-4.335,6.722  c-0.493,0.567-1.109,1.024-1.671,1.532c-0.063-0.062-0.13-0.123-0.192-0.188c0.077-0.181,0.133-0.382,0.243-0.537  c1.367-1.898,2.755-3.785,4.117-5.688c0.202-0.283,0.532-0.739,0.438-0.925c-0.436-0.842-0.156-1.521,0.33-2.218  c-0.521,0.522-0.92,1.104-1.401,1.605c-1.648,1.729-3.093,3.727-5.595,4.376c-0.215,0.059-0.436,0.244-0.571,0.428  C286.562,67.209,285.568,68.588,284.518,70.038z M290.725,70.625c-0.643-0.074-1.175-0.116-1.697-0.199  c-2.217-0.354-4.252,0.006-5.801,1.729c-0.752,0.838-1.289,1.87-1.896,2.828c-0.06,0.088,0.021,0.301,0.094,0.426  c0.494,0.868,1.003,1.729,1.576,2.711c1.165-1.145,2.569-1.396,4.013-1.405c1.963-0.014,3.362-0.896,4.381-2.513  c0.389-0.619,0.85-1.195,1.19-1.836c0.151-0.285,0.104-0.68,0.154-1.135c-1.4,0.344-2.57,0.682-3.765,0.908  c-1.945,0.367-3.551,1.203-4.613,2.949c-0.299,0.489-0.713,0.912-1.096,1.348c-0.139,0.153-0.338,0.256-0.722,0.538  c0.397-1.82,1.524-2.901,2.33-4.16c0.065-0.104,0.269-0.118,0.41-0.165c1.717-0.577,3.437-1.15,5.151-1.733  C290.507,70.891,290.553,70.8,290.725,70.625z M317.301,33.931c0.043,0.094,0.085,0.187,0.127,0.277  c1.596-0.541,3.268-0.93,4.506-2.212c1.018-1.052,1.006-1.321,0.064-2.042c-0.441-0.34-0.727-0.895-1.05-1.373  c-0.529-0.783-0.964-1.643-1.572-2.354c-0.379-0.443-1.036-0.984-1.517-0.938c-1.408,0.142-2.795,0.526-4.176,0.878  c-0.254,0.065-0.627,0.429-0.619,0.644c0.062,1.924,0.199,3.846,0.313,5.768c0.159,0.021,0.317,0.041,0.478,0.062  c0.218-0.693,0.521-1.372,0.636-2.082c0.174-1.111,0.226-2.243,0.315-3.367c0.043-0.543,0.295-0.914,0.851-0.789  c0.122,0.027,0.217,0.637,0.155,0.947c-0.226,1.143-0.519,2.27-0.783,3.401c0.083,0.021,0.166,0.042,0.248,0.063  c0.402-1.143,0.771-2.293,1.231-3.408c0.095-0.234,0.517-0.334,0.787-0.495c0.037,0.274,0.183,0.588,0.099,0.817  c-0.767,2.084-1.569,4.15-2.362,6.228c0.041,0.062,0.082,0.124,0.122,0.188c0.533-0.306,1.082-0.584,1.595-0.916  c0.737-0.479,1.437-1.023,2.188-1.48c0.151-0.094,0.601-0.005,0.672,0.129c0.098,0.185,0.055,0.564-0.084,0.727  c-0.231,0.264-0.578,0.437-0.896,0.619C318.195,33.469,317.745,33.695,317.301,33.931z M273.212,51.904  c0.933,0.074,1.651,0.139,2.372,0.177c0.165,0.009,0.395-0.022,0.494-0.132c0.421-0.455,0.869-0.379,1.413-0.253  c0.419,0.097,0.928,0.048,1.334-0.104c0.907-0.338,1.759-0.836,2.67-1.166c0.599-0.214,1.258-0.293,1.897-0.349  c0.846-0.073,1.697-0.042,2.545-0.101c0.438-0.031,0.861-0.235,1.295-0.236c1.959-0.007,3.916,0.032,5.875,0.055  c0.014-0.076,0.023-0.15,0.037-0.229c-0.481-0.116-0.961-0.259-1.449-0.343c-0.989-0.17-1.989-0.273-2.971-0.479  c-0.322-0.064-0.771-0.304-0.858-0.564c-0.284-0.816-0.91-1.064-1.621-1.099c-2.244-0.101-4.49-0.169-6.736-0.169  c-0.331,0-0.688,0.418-0.989,0.688c-1.17,1.05-2.299,2.146-3.492,3.17C274.533,51.195,273.913,51.474,273.212,51.904z  M330.082,57.865c-0.493-0.158-0.688-0.248-0.891-0.281c-2.131-0.347-4.268-0.685-6.396-1.021c-0.119-0.02-0.247-0.022-0.363,0  c-2.298,0.466-4.523,0.034-6.761-0.464c-0.864-0.194-1.762-0.241-2.646-0.354c0.146,0.291,0.334,0.378,0.523,0.443  c4.34,1.457,8.514,3.277,12.463,5.605c0.23,0.139,0.812,0.062,0.982-0.137C328.025,60.478,328.982,59.234,330.082,57.865z  M312.596,58.838c2.791,2.271,5.981,2.434,9.516,2.062c-3.428-1.479-6.325-3.72-10.057-3.89c0.021,0.592,0.309,1.477-0.568,1.227  c-1.287-0.367-2.479-1.08-3.709-1.652c-0.17-0.08-0.322-0.194-0.627-0.382c0.021,0.362-0.024,0.586,0.055,0.745  c0.583,1.166,1.186,2.324,1.801,3.471c0.128,0.234,0.32,0.47,0.541,0.608c1.062,0.673,1.779,1.622,2.352,2.717  c0.153,0.298,0.404,0.543,0.64,0.847c0.69-1.02,0.647-1.83-0.034-2.553c-0.646-0.686-1.299-1.369-1.919-2.08  c-0.258-0.297-0.438-0.663-0.653-0.997c0.065-0.07,0.131-0.145,0.194-0.217c0.325,0.169,0.717,0.274,0.964,0.521  c0.729,0.729,1.396,1.519,2.094,2.279c0.922,1.013,2.09,1.033,2.848,0.028C314.838,60.734,312.967,60.784,312.596,58.838z  M266.266,53.135c1.916-0.381,3.979-0.793,6.047-1.203c0.022-0.553,0.262-1.281,0.026-1.799c-0.435-0.968,0.095-1.369,0.665-1.908  c0.609-0.578,1.143-1.237,1.708-1.861c-0.063-0.084-0.128-0.17-0.192-0.254c-1.978-0.195-3.953-0.394-5.924-0.586  c-0.299,1.398-0.484,2.729-0.879,3.999C267.318,50.81,266.717,52.034,266.266,53.135z M317.827,76.171  c-0.07-0.122-0.14-0.246-0.21-0.369c-0.669,0.02-1.361-0.07-2.001,0.072c-1.476,0.334-2.929,0.771-4.384,1.194  c-0.271,0.077-0.506,0.286-0.844,0.483c0.887,0.455,2.152,0.114,2.512,1.6c-1.758-0.389-3.323-1.275-5.043-0.316  c0.771,0.621,2.002-0.027,2.699,1.17c-0.604-0.044-0.986-0.109-1.363-0.088c-0.366,0.022-0.909,0.023-1.049,0.242  c-0.195,0.308-0.095,0.807-0.117,1.258c0.283-0.019,0.41,0.011,0.455-0.038c1.068-1.187,2.521-1.313,3.979-1.524  c1.016-0.146,2.188-0.231,2.951-0.797C316.395,78.333,317.038,77.155,317.827,76.171z M300.395,79.714  c0.084,0.045,0.17,0.088,0.254,0.135c0.386-0.177,0.75-0.415,1.15-0.516c0.985-0.242,1.367-0.861,1.393-1.837  c0.06-2.304,0.187-4.604,0.221-6.908c0.012-0.821-0.16-1.646-0.249-2.472c-0.106-0.005-0.22-0.01-0.324-0.015  C302.023,71.972,301.209,75.843,300.395,79.714z M316.025,37.26c-0.858-0.371-1.627-0.762-2.438-1.027  c-0.279-0.092-0.806-0.008-0.979,0.197c-0.746,0.912-1.489,1.854-2.088,2.871c-1.162,1.984-2.227,4.025-3.33,6.045  c1.912-1.879,3.688-3.821,5.414-5.812c0.535-0.617,1.07-0.975,1.807-0.656C315.021,38.269,315.57,37.719,316.025,37.26z  M336.391,31.962c-1.531,0.099-3.008,0.282-4.479,0.261c-1.396-0.024-2.786-0.29-4.184-0.396c-0.394-0.031-0.799,0.12-1.197,0.188  c1.238,0.613,2.425,1.017,3.597,1.454c1.625,0.608,3.267,0.949,5.013,0.606c1.252-0.245,1.256-0.208,1.228-1.51  C336.359,32.324,336.385,32.082,336.391,31.962z M266.031,68.598c0.021,0.069,0.042,0.143,0.064,0.212  c1.312,0.302,2.633,0.584,3.939,0.912c0.703,0.177,1.386,0.434,2.074,0.651c0.219-0.721,0.471-1.434,0.645-2.165  c0.248-1.051-0.141-1.548-1.213-1.371c-1.25,0.207-2.48,0.56-3.695,0.927C267.214,67.955,266.635,68.316,266.031,68.598z  M328.734,61.605c2.629-0.854,5.113-1.655,7.597-2.459c0.013-0.08,0.024-0.16,0.039-0.24c-0.489-0.241-0.959-0.609-1.476-0.691  c-0.74-0.115-1.517-0.027-2.274-0.021c-1.106,0.011-2.157,0.261-2.882,1.138C329.191,59.991,328.523,60.68,328.734,61.605z  M279.7,45.784c3.194,0.212,6.282,0.417,9.373,0.624c0.032-0.102,0.065-0.203,0.099-0.304c-0.312-0.167-0.637-0.497-0.936-0.479  c-2.121,0.146-3.908-0.734-5.672-1.725c-0.67-0.375-1.336-0.765-2.014-1.15C280.246,43.842,279.979,44.793,279.7,45.784z  M291.277,54.613c0.002-0.062,0.004-0.125,0.008-0.188c-0.86,0.197-1.771,0.275-2.568,0.62c-1.023,0.442-1.96,1.091-2.929,1.659  c-0.229,0.135-0.586,0.271-0.631,0.465c-0.229,0.957-0.373,1.937-0.568,3.031c0.298-0.103,0.464-0.113,0.562-0.198  C287.198,58.211,289.238,56.411,291.277,54.613z M304.489,69.287c-0.06,0.002-0.116,0.004-0.175,0.007  c-0.021,0.097-0.062,0.188-0.062,0.284c0.004,2.553,0.021,5.104,0.016,7.657c-0.002,1.208,0.205,1.354,1.328,0.854  c0.195-0.085,0.389-0.186,0.562-0.309c0.646-0.459,0.695-1.056,0.229-1.701c-0.15-0.206-0.152-0.525-0.205-0.799  c-0.05-0.263-0.039-0.538-0.115-0.79c-0.314-1.043-0.661-2.074-0.979-3.115C304.872,70.683,304.688,69.984,304.489,69.287z  M299.529,61.414c-1.781,3.535-3.42,8.871-2.57,11.077C298.473,68.898,299.393,65.252,299.529,61.414z M292.713,77.032  c-0.552-0.066-1.109-0.316-1.424-0.137c-0.973,0.556-1.831,0.604-2.977,0.42c-1.174-0.189-2.5,0.324-3.715,0.687  c-1.35,0.397-1.449,0.845-0.761,2.099C286.758,79.091,289.67,78.086,292.713,77.032z M266.689,46.289  c-0.717,0.894-1.373,1.705-2.021,2.527c-0.068,0.086-0.118,0.231-0.1,0.338c0.156,0.826,0.312,1.656,0.519,2.471  c0.05,0.193,0.272,0.403,0.465,0.475c0.103,0.033,0.378-0.184,0.452-0.344c0.454-0.954,0.969-1.896,1.273-2.898  C267.529,48.029,267.489,47.133,266.689,46.289z M295.277,71.221c0.305-0.501,0.712-0.95,0.865-1.478  c0.332-1.123,0.553-2.279,0.775-3.43c0.223-1.117,0.391-2.242,0.579-3.363c-0.078-0.021-0.158-0.041-0.233-0.062  c-0.078,0.118-0.184,0.229-0.229,0.359c-0.765,2.049-1.503,4.105-2.292,6.146C294.462,70.125,294.57,70.679,295.277,71.221z  M327.831,65.236c-0.079,0.037-0.158,0.072-0.238,0.106c0.084,0.402,0.157,0.808,0.255,1.204c0.223,0.914,0.627,1.822,0.639,2.736  c0.014,0.941,0.357,1.373,1.168,1.66c0.705,0.248,1.381,0.568,2.072,0.231c-0.604-0.815-1.211-1.562-1.729-2.364  C329.244,67.642,328.551,66.43,327.831,65.236z M315.107,84.541c-0.069-0.055-0.182-0.158-0.307-0.24  c-1.527-1.004-1.66-0.928-2.677,0.564c-0.481,0.717-0.31,1.164,0.229,1.643c0.203,0.184,0.422,0.354,0.655,0.49  c0.873,0.527,1.021,0.475,1.367-0.473C314.609,85.905,314.837,85.281,315.107,84.541z M311.514,25.592  c1.62-0.227,2.983-0.438,4.354-0.604c1.938-0.234,1.981-0.305,0.925-1.929c-0.033-0.053-0.057-0.146-0.093-0.151  c-0.279-0.055-0.632-0.223-0.832-0.116c-1.042,0.55-2.058,1.152-3.058,1.774C312.398,24.822,312.043,25.168,311.514,25.592z  M345.087,36.285c-0.92-0.086-1.796-0.196-2.676-0.234c-0.534-0.021-1.095-0.012-1.604,0.129c-0.703,0.188-0.789,0.617-0.178,0.986  c0.801,0.482,1.678,0.854,2.551,1.193c0.19,0.074,0.604-0.104,0.75-0.292C344.335,37.552,344.652,36.969,345.087,36.285z  M291.406,76.135c0.843-0.028,1.679-0.052,2.513-0.104c0.108-0.006,0.265-0.178,0.295-0.3c0.222-0.82,0.444-1.645,0.584-2.479  c0.021-0.129-0.407-0.5-0.577-0.471C293.116,72.967,291.521,74.879,291.406,76.135z M323.277,23.244  c-0.282,0.133-0.721,0.273-1.078,0.528c-0.223,0.159-0.483,0.519-0.444,0.741c0.204,1.227,0.438,2.453,0.782,3.646  c0.168,0.584,0.595,1.094,0.902,1.638c0.136-0.044,0.27-0.087,0.4-0.13c-0.013-0.389,0.125-0.887-0.064-1.147  c-0.562-0.779-0.442-1.604-0.403-2.452c0.017-0.354-0.089-0.711-0.099-1.067C323.257,24.453,323.273,23.904,323.277,23.244z  M273.479,50.342c1.543-0.602,2.826-1.354,3.729-2.636c0.187-0.261,0.226-0.626,0.329-0.938c-0.35-0.045-0.707-0.179-1.033-0.115  C275.068,46.917,273.736,48.51,273.479,50.342z M313.948,82.081c0.014,0.116-0.064,0.578,0.114,0.729  c1.285,1.079,2.078,1.055,2.97,0.016c0.378-0.438,0.219-1.469-0.285-1.859C316.123,80.484,314.923,80.892,313.948,82.081z  M319.08,20.551c-0.4,0.31-0.727,0.564-1.059,0.813c-0.983,0.737-1.022,0.928-0.322,1.942c0.169,0.244,0.357,0.545,0.607,0.652  c0.311,0.139,0.883,0.257,1.012,0.105c0.375-0.443,0.854-1.062,0.793-1.545C320.029,21.864,319.48,21.265,319.08,20.551z  M327.611,70.795c-0.325-1.705-0.652-3.402-0.979-5.104c-0.104,0.011-0.212,0.021-0.317,0.031c-0.194,1.252-0.485,2.494-0.562,3.756  C325.661,70.906,325.938,71.066,327.611,70.795z M310.573,24.582c1.853-0.519,3.509-1.378,4.942-2.634  c0.576-0.507,0.418-0.966-0.021-1.45C313.824,21.885,312.198,23.234,310.573,24.582z M339.25,39.4  c0.531,0.262,0.945,0.438,1.335,0.664c0.444,0.259,1.628-0.102,1.746-0.602c0.041-0.168-0.099-0.506-0.24-0.564  c-0.715-0.307-1.458-0.544-2.329-0.855C339.602,38.469,339.42,38.95,339.25,39.4z M309.707,82.739  c-0.354,0.604,0.354,1.978,0.848,1.908c0.486-0.07,0.971-0.562,1.336-0.979c0.396-0.439,0.113-0.835-0.396-0.909  C310.879,82.673,309.855,82.482,309.707,82.739z M320.703,80.605c-0.197-1.478-0.362-2.702-0.528-3.934  c-0.082-0.001-0.165-0.002-0.249-0.003c-0.275,1.123-0.553,2.248-0.846,3.444C319.542,80.254,319.964,80.383,320.703,80.605z  M319.073,76.507c-0.104-0.041-0.208-0.08-0.312-0.121c-0.577,0.723-1.19,1.42-1.706,2.182c-0.117,0.176,0.002,0.707,0.188,0.852  c0.364,0.283,0.84,0.258,1.024-0.279C318.564,78.27,318.809,77.384,319.073,76.507z M321.395,27.781  c0.078-0.027,0.156-0.054,0.234-0.081c-0.214-0.802-0.416-1.608-0.65-2.403c-0.098-0.324-0.272-0.896-0.396-0.895  c-0.402,0.014-0.797,0.244-1.202,0.393C320.117,25.89,320.756,26.836,321.395,27.781z M295.342,77.145  c0.303-0.375,0.559-0.582,0.661-0.85c0.198-0.511,0.298-1.057,0.456-1.583c0.168-0.564,0.109-1.004-0.705-1.193  C295.634,74.681,294.732,75.663,295.342,77.145z M302.441,80.548c-0.104-0.021-0.209-0.042-0.312-0.062  c-1.124,1.38-1.316,3.033-0.311,3.687C302.033,82.927,302.238,81.738,302.441,80.548z M276.939,45.574  c1.752,0.309,2.369-0.266,2.17-1.92C278.079,43.92,277.512,44.646,276.939,45.574z M273.078,71.143  c0.675,0.091,1.161,0.152,1.906,0.255c-0.437-0.928-0.771-1.64-1.104-2.35c-0.108,0.023-0.219,0.049-0.325,0.07  C273.406,69.747,273.259,70.374,273.078,71.143z M276.171,72.013c0.099-0.061,0.197-0.116,0.297-0.177  c-0.745-1.354-0.616-3.125-2.122-4.121C274.954,69.15,275.562,70.582,276.171,72.013z M329.368,72.367  c0.995,0.905,2.239,0.559,3.386,0.721C331.689,72.552,330.639,71.97,329.368,72.367z M322.018,73.4  c0.043,0.146,0.084,0.295,0.127,0.44c0.877-0.203,1.758-0.392,2.623-0.644c0.078-0.023,0.045-0.449,0.075-0.855  C323.781,72.741,322.898,73.071,322.018,73.4z M319.004,63.231c-1.355-1.062-1.93-1.066-3.303-0.097  C316.834,63.17,317.807,63.196,319.004,63.231z M313.492,80.967c-1.088,0.234-1.983,0.433-3.094,0.677  C312.43,82.262,312.751,82.2,313.492,80.967z M283.678,58.529c-0.306,0.803-0.613,1.604-0.929,2.433  C283.736,61.072,284.12,60.135,283.678,58.529z M297.775,85.592c-0.709,1.414-1.344,2.686-1.946,3.893  C296.336,89.551,297.814,87.071,297.775,85.592z M339.115,37.711c-0.814-0.254-1.278-0.396-1.809-0.562  c-0.078,0.839,0.284,1.288,0.859,1.425C338.359,38.619,338.68,38.123,339.115,37.711z M276.379,75.341  c0.501-0.45,0.821-0.735,1.139-1.022c-0.379-0.279-0.761-0.561-1.142-0.838c-0.097,0.08-0.19,0.161-0.288,0.242  C276.169,74.164,276.248,74.607,276.379,75.341z M318.525,34.935c-1.055,0.214-2.121,0.43-3.125,0.632  C316.465,36.154,317.945,35.875,318.525,34.935z M326.156,72.918c0.811-0.048,1.359-0.082,2.029-0.123  c-0.47-0.833-1.102-0.705-1.668-0.633C326.398,72.177,326.324,72.551,326.156,72.918z M339.212,36.878  c0.49-0.617,0.486-0.974-0.067-1.138c-0.244-0.072-0.541,0.031-0.812,0.055C338.605,36.135,338.884,36.475,339.212,36.878z  M264.085,52.34c0.11-0.021,0.224-0.044,0.334-0.062c-0.041-0.414-0.039-0.84-0.161-1.229c-0.025-0.083-0.517-0.016-1.012-0.02  C263.624,51.62,263.854,51.979,264.085,52.34z M274.761,72.482c0.019-0.059,0.032-0.113,0.05-0.17c-0.502-0.15-1-0.332-1.513-0.436  c-0.155-0.03-0.354,0.158-0.534,0.248c0.157,0.137,0.312,0.374,0.478,0.389C273.743,72.55,274.253,72.498,274.761,72.482z  M340.729,33.44c-0.088-0.065-0.179-0.132-0.267-0.198c-0.319,0.4-0.642,0.799-0.962,1.197c0.088,0.066,0.176,0.137,0.266,0.205  C340.086,34.244,340.408,33.843,340.729,33.44z M294.238,80.56c0.229-0.595,0.453-1.179,0.672-1.743  C294.188,78.79,293.918,79.465,294.238,80.56z M298.561,84.039c0.1,0.045,0.191,0.092,0.287,0.137  c0.264-0.543,0.528-1.084,0.795-1.629c-0.101-0.044-0.199-0.091-0.297-0.136C299.083,82.953,298.822,83.496,298.561,84.039z  M295.132,58.355c0.735-0.807,1.452-1.587,2.171-2.369c-0.055-0.045-0.107-0.09-0.16-0.137  C296.477,56.679,295.811,57.51,295.132,58.355z M320.669,82.43c-0.142-1.042-0.862-0.938-1.628-1.113  c0.469,0.376,0.788,0.644,1.12,0.892C320.273,82.292,320.423,82.326,320.669,82.43z"></path>
</svg>