<?xml version="1.0" standalone="no"?>
<!DOCTYPE svg PUBLIC "-//W3C//DTD SVG 20010904//EN"
 "https://www.w3.org/TR/2001/REC-SVG-20010904/DTD/svg10.dtd">
<svg version="1.0" xmlns="https://www.w3.org/2000/svg"
 width="1000.000000pt" height="1000.000000pt" viewBox="0 0 1000.000000 1000.000000"
 preserveAspectRatio="xMidYMid meet">
<metadata>
Created by potrace 1.14, written by Peter Selinger 2001-2017
</metadata>
<g transform="translate(0.000000,1000.000000) scale(0.100000,-0.100000)"
fill="#000000" stroke="none">
<path d="M6955 9845 c-155 -48 -252 -117 -360 -255 -44 -56 -98 -125 -121
-154 -220 -276 -703 -928 -864 -1166 -36 -52 -67 -97 -70 -100 -3 -3 -47 -68
-96 -145 -244 -375 -679 -1136 -1021 -1785 -28 -52 -72 -135 -98 -185 -123
-232 -184 -351 -396 -775 -211 -422 -315 -634 -409 -835 -21 -44 -60 -127 -88
-185 -27 -58 -64 -136 -82 -175 -18 -38 -73 -158 -122 -265 -136 -295 -320
-711 -462 -1045 -71 -165 -134 -314 -142 -331 -7 -17 -29 -73 -49 -125 -19
-52 -39 -103 -44 -114 -48 -111 -158 -451 -210 -649 -29 -107 -34 -129 -46
-193 -3 -16 -8 -35 -10 -43 -3 -8 -7 -33 -10 -55 -4 -22 -8 -47 -10 -55 -2 -8
-7 -35 -10 -60 -3 -25 -8 -61 -11 -80 -10 -61 -13 -363 -4 -415 17 -104 22
-122 44 -187 32 -91 67 -147 129 -211 83 -84 192 -130 320 -136 l57 -2 16 38
c8 21 23 56 33 78 10 22 46 107 80 188 34 81 70 167 80 190 16 35 178 420 698
1657 24 58 48 114 52 125 5 11 16 36 24 55 36 83 312 740 332 790 23 55 202
481 235 555 9 22 29 69 45 105 27 65 29 67 149 145 66 44 267 176 446 294 179
118 437 288 574 378 136 90 250 162 253 159 2 -2 -2 -42 -11 -88 -23 -123 -25
-137 -36 -208 -6 -36 -13 -76 -15 -90 -3 -14 -7 -38 -10 -55 -20 -109 -35
-195 -40 -225 -3 -19 -14 -84 -25 -145 -10 -60 -21 -123 -23 -140 -6 -35 -12
-72 -37 -215 -11 -58 -21 -121 -24 -140 -3 -19 -8 -46 -10 -60 -9 -51 -37
-216 -42 -250 -3 -19 -12 -71 -19 -115 -8 -44 -17 -93 -19 -110 -72 -457 -77
-514 -52 -631 24 -113 102 -251 187 -330 123 -115 337 -230 504 -271 68 -17
65 -18 66 18 0 19 2 43 5 54 2 11 6 43 8 70 5 48 11 100 21 175 2 19 7 58 10
85 3 28 10 82 15 120 5 39 12 93 15 120 8 81 55 467 60 503 3 18 7 52 10 75 3
23 7 51 9 62 5 25 15 90 21 130 7 50 15 97 25 150 5 28 12 66 15 85 3 19 8 46
10 60 3 14 8 36 10 50 3 14 19 95 35 180 16 85 34 178 40 205 10 48 12 61 26
130 3 17 14 68 24 115 10 47 21 96 24 110 27 136 89 428 126 589 16 73 32 143
34 155 2 11 23 104 46 206 23 102 43 192 45 200 2 8 13 56 24 105 12 50 24
100 26 111 3 12 19 80 36 150 17 71 33 138 35 149 2 11 27 117 55 235 28 118
52 224 55 235 35 171 204 811 242 915 3 8 6 20 7 26 2 6 42 136 90 290 78 250
132 420 242 754 37 112 92 307 99 349 3 14 9 43 15 63 22 84 38 239 34 343 -5
157 -3 151 -115 319 -180 268 -339 375 -553 374 -54 -1 -105 -8 -152 -23z
m-173 -1592 c-5 -10 -28 -83 -52 -163 -23 -80 -71 -242 -107 -360 -36 -118
-75 -251 -88 -295 -50 -173 -168 -570 -270 -910 -13 -44 -30 -102 -38 -130
l-13 -50 -220 -132 c-120 -73 -230 -138 -244 -145 -14 -7 -36 -20 -50 -29 -14
-9 -104 -63 -200 -119 -96 -57 -186 -110 -200 -120 -14 -9 -33 -19 -43 -23
-20 -8 -23 -13 40 86 24 37 43 69 43 71 0 3 17 31 38 63 21 32 42 65 45 73 4
8 32 53 62 100 30 47 62 99 71 115 9 17 31 53 49 80 30 47 208 335 230 373 6
9 42 68 80 130 39 62 75 120 80 130 6 9 66 108 135 220 69 111 163 265 210
341 47 76 155 252 240 390 85 138 160 260 165 270 22 40 55 70 37 34z"/>
</g>
</svg>
